<?xml version="1.0" standalone="no"?><!DOCTYPE svg PUBLIC "-//W3C//DTD SVG 1.1//EN" 	"http://www.w3.org/Graphics/SVG/1.1/DTD/svg11.dtd"><svg width="1440" height="755" version="1.1"	xmlns="http://www.w3.org/2000/svg"><title>Krona (snapshot) - Exosome</title><defs>	<style type="text/css">	text {font-size: 4px; font-family: sans-serif; dominant-baseline:central}	path {stroke-width:0.09999999999999999;}	path.wedge {stroke:none}	path.line {fill:none;stroke:black;}	line {stroke:black;stroke-width:0.09999999999999999;}	line.tick {stroke-width:0.19999999999999998;}	line.pattern {stroke-width:0.06666666666666667;}	circle {fill:none;stroke:black;stroke-width:0.09999999999999999;}	rect {stroke:black;stroke-width:0.09999999999999999;}	.highlight {stroke:black;stroke-width:0.5;}	.searchHighlight {fill:rgb(255, 255, 100);stroke:none;}	</style><pattern id="hiddenPattern" patternUnits="userSpaceOnUse" x="0" y="0" width="2.4" height="2.4"><line class="pattern" x1="0" y1="0" x2="1.2" y2="1.2"/><line class="pattern" x1="1.2" y1="2.4" x2="2.4" y2="1.2"/></pattern></defs><path class="wedge" fill="rgb(140,140,216)" d=" M 645,409.5 L 645,724.8 A 347.3,347.3 0 1,1 672.5930429892765,31.29787121019615 L 647.5424053430949,345.6011571515297 A 32,32 0 1 0 645,409.5 Z "/><path class="wedge" fill="rgb(140,216,216)" d=" M 647.5424053430949,345.6011571515297 L 672.5930429892765,31.29787121019615 A 347.3,347.3 0 0,1 972.6474389934974,262.328624558867 L 675.1892255911083,366.88818308633387 A 32,32 0 0 0 647.5424053430949,345.6011571515297 Z "/><path class="wedge" fill="rgb(216,216,140)" d=" M 675.1892255911083,366.88818308633387 L 972.6474389934974,262.328624558867 A 347.3,347.3 0 0,1 950.2680837726311,543.1160832461203 L 673.1272061063179,392.7597600457122 A 32,32 0 0 0 675.1892255911083,366.88818308633387 Z "/><path class="wedge" fill="rgb(140,216,140)" d=" M 673.1272061063179,392.7597600457122 L 950.2680837726311,543.1160832461203 A 347.3,347.3 0 0,1 851.366017361875,656.8391431185366 L 664.0144329270947,403.2381300886645 A 32,32 0 0 0 673.1272061063179,392.7597600457122 Z "/><path class="wedge" fill="rgb(140,216,140)" d=" M 775.372846884554,521.5240161250861 L 878.0724841690935,634.97719728793 A 347.3,347.3 0 0,1 851.366017361875,656.8391431185366 L 760.4341546562646,533.7528475400559 A 194.26784712242628,194.26784712242628 0 0 0 775.372846884554,521.5240161250861 Z "/><path class="wedge" fill="rgb(140,216,165)" d=" M 815.7566179950979,470.1400228651665 L 950.2680837726311,543.1160832461203 A 347.3,347.3 0 0,1 924.3391431185366,583.866017361875 L 801.2528475400559,492.93415465626464 A 194.26784712242628,194.26784712242628 0 0 0 815.7566179950979,470.1400228651665 Z "/><path class="wedge" fill="rgb(140,216,165)" d=" M 801.2528475400559,492.93415465626464 L 924.3391431185366,583.866017361875 A 347.3,347.3 0 0,1 897.7923108413252,615.6456226335115 L 786.4034494565143,510.71058857080914 A 194.26784712242628,194.26784712242628 0 0 0 801.2528475400559,492.93415465626464 Z "/><path class="wedge" fill="rgb(140,216,165)" d=" M 786.4034494565143,510.71058857080914 L 897.7923108413252,615.6456226335115 A 347.3,347.3 0 0,1 883.1456226335114,630.2923108413253 L 778.210588570809,518.9034494565144 A 194.26784712242628,194.26784712242628 0 0 0 786.4034494565143,510.71058857080914 Z "/><path class="wedge" fill="rgb(140,216,165)" d=" M 778.210588570809,518.9034494565144 L 883.1456226335114,630.2923108413253 A 347.3,347.3 0 0,1 878.0724841690935,634.97719728793 L 775.372846884554,521.5240161250861 A 194.26784712242628,194.26784712242628 0 0 0 778.210588570809,518.9034494565144 Z "/><path class="wedge" fill="rgb(140,216,140)" d=" M 775.372846884554,521.5240161250861 L 878.0724841690935,634.97719728793 A 347.3,347.3 0 0,1 878.0724841690935,634.97719728793 L 775.372846884554,521.5240161250861 A 194.26784712242628,194.26784712242628 0 0 0 775.372846884554,521.5240161250861 Z "/><path class="wedge" fill="url(#hiddenPattern)" d=" M 775.372846884554,521.5240161250861 L 878.0724841690935,634.97719728793 A 347.3,347.3 0 0,1 878.0724841690935,634.97719728793 L 775.372846884554,521.5240161250861 A 194.26784712242628,194.26784712242628 0 0 0 775.372846884554,521.5240161250861 Z "/><path class="wedge" fill="rgb(216,140,216)" d=" M 664.0144329270947,403.2381300886645 L 851.366017361875,656.8391431185366 A 347.3,347.3 0 0,1 740.4337927818309,711.4306532729132 L 653.7932086640328,408.26815693847743 A 32,32 0 0 0 664.0144329270947,403.2381300886645 Z "/><path class="wedge" fill="rgb(216,140,140)" d=" M 653.7932086640328,408.26815693847743 L 740.4337927818309,711.4306532729132 A 347.3,347.3 0 0,1 644.9999999999998,724.8 L 645,409.5 A 32,32 0 0 0 653.7932086640328,408.26815693847743 Z "/><path class="wedge" fill="rgb(216,165,140)" d=" M 698.3824286393724,564.2894877613425 L 740.4337927818309,711.4306532729132 A 347.3,347.3 0 0,1 658.8074376931621,724.525423657042 L 652.7234125969699,571.6142584238452 A 194.26784712242628,194.26784712242628 0 0 0 698.3824286393724,564.2894877613425 Z "/><path class="wedge" fill="rgb(216,165,140)" d=" M 652.7234125969699,571.6142584238452 L 658.8074376931621,724.525423657042 A 347.3,347.3 0 0,1 651.9050837760786,724.7313491291438 L 648.8624697937771,571.7294461524167 A 194.26784712242628,194.26784712242628 0 0 0 652.7234125969699,571.6142584238452 Z "/><path class="wedge" fill="rgb(216,165,140)" d=" M 648.8624697937771,571.7294461524167 L 651.9050837760786,724.7313491291438 A 347.3,347.3 0 0,1 644.9999999999998,724.8 L 644.9999999999999,571.7678471224262 A 194.26784712242628,194.26784712242628 0 0 0 648.8624697937771,571.7294461524167 Z "/><path class="wedge" fill="rgb(216,165,140)" d=" M 644.9999999999999,571.7678471224262 L 644.9999999999998,724.8 A 347.3,347.3 0 0,1 638.0949162239212,724.7313491291438 L 641.1375302062228,571.7294461524167 A 194.26784712242628,194.26784712242628 0 0 0 644.9999999999999,571.7678471224262 Z "/><path class="wedge" fill="rgb(216,140,140)" d=" M 641.1375302062228,571.7294461524167 L 638.0949162239212,724.7313491291438 A 347.3,347.3 0 0,1 638.0949162239212,724.7313491291438 L 641.1375302062228,571.7294461524167 A 194.26784712242628,194.26784712242628 0 0 0 641.1375302062228,571.7294461524167 Z "/><path class="wedge" fill="url(#hiddenPattern)" d=" M 641.1375302062228,571.7294461524167 L 638.0949162239212,724.7313491291438 A 347.3,347.3 0 0,1 638.0949162239212,724.7313491291438 L 641.1375302062228,571.7294461524167 A 194.26784712242628,194.26784712242628 0 0 0 641.1375302062228,571.7294461524167 Z "/><circle cx="645" cy="377.5" r="32"/><circle cx="645" cy="377.5" r="347.3"/><text x="645" y="377.5" text-anchor="middle" style="font-color:black;font-weight:bold" transform="rotate(360,645,377.5)">Exosome</text><path class="line" d=" M 647.5424053430949,345.6011571515297 A 32,32 0 1 0 645,409.5"/><line x1="672.5930429892765" y1="31.29787121019615" x2="647.5424053430949" y2="345.6011571515297"/><text x="455.35" y="377.5" text-anchor="end" style="font-color:black;font-weight:normal" transform="rotate(2.2784810126582355,645,377.5)">Plasma Membrane&#160;&#160;&#160;51%</text><path class="line" d=" M 675.1892255911083,366.88818308633387 A 32,32 0 0 0 647.5424053430949,345.6011571515297"/><line x1="972.6474389934974" y1="262.328624558867" x2="675.1892255911083" y2="366.88818308633387"/><text x="834.65" y="377.5" text-anchor="start" style="font-color:black;font-weight:normal" transform="rotate(307.5949367088608,645,377.5)">18%&#160;&#160;&#160;Other</text><path class="line" d=" M 673.1272061063179,392.7597600457122 A 32,32 0 0 0 675.1892255911083,366.88818308633387"/><line x1="950.2680837726311" y1="543.1160832461203" x2="673.1272061063179" y2="392.7597600457122"/><text x="834.65" y="377.5" text-anchor="start" style="font-color:black;font-weight:normal" transform="rotate(364.55696202531647,645,377.5)">13%&#160;&#160;&#160;Cytosol</text><path class="line" d=" M 664.0144329270947,403.2381300886645 A 32,32 0 0 0 673.1272061063179,392.7597600457122"/><line x1="851.366017361875" y1="656.8391431185366" x2="664.0144329270947" y2="403.2381300886645"/><text x="645" y="490.6339235612131" text-anchor="middle" style="font-color:black;font-weight:normal" transform="rotate(311.01265822784814,645,377.5)">Organelle Membrane</text><path class="line" d=" M 801.2528475400559,492.93415465626464 A 194.26784712242628,194.26784712242628 0 0 0 815.7566179950979,470.1400228651665"/><line x1="924.3391431185366" y1="583.866017361875" x2="801.2528475400559" y2="492.93415465626464"/><text x="915.7839235612132" y="377.5" text-anchor="start" style="font-color:black;font-weight:normal" transform="rotate(392.46835443037975,645,377.5)">2%&#160;&#160;&#160;Endosome</text><path class="line" d=" M 786.4034494565143,510.71058857080914 A 194.26784712242628,194.26784712242628 0 0 0 801.2528475400559,492.93415465626464"/><line x1="897.7923108413252" y1="615.6456226335115" x2="786.4034494565143" y2="510.71058857080914"/><text x="915.7839235612132" y="377.5" text-anchor="start" style="font-color:black;font-weight:normal" transform="rotate(399.873417721519,645,377.5)">2%&#160;&#160;&#160;Golgi</text><path class="line" d=" M 778.210588570809,518.9034494565144 A 194.26784712242628,194.26784712242628 0 0 0 786.4034494565143,510.71058857080914"/><line x1="883.1456226335114" y1="630.2923108413253" x2="778.210588570809" y2="518.9034494565144"/><text x="915.7839235612132" y="377.5" text-anchor="start" style="font-color:black;font-weight:normal" transform="rotate(405.00000000000006,645,377.5)">0.9%&#160;&#160;&#160;ER</text><path class="line" d=" M 775.372846884554,521.5240161250861 A 194.26784712242628,194.26784712242628 0 0 0 778.210588570809,518.9034494565144"/><line x1="878.0724841690935" y1="634.97719728793" x2="775.372846884554" y2="521.5240161250861"/><text x="915.7839235612132" y="377.5" text-anchor="start" style="font-color:black;font-weight:normal" transform="rotate(407.2784810126583,645,377.5)">0.3%&#160;&#160;&#160;Mitochondria</text><path class="line" d=" M 775.372846884554,521.5240161250861 A 194.26784712242628,194.26784712242628 0 0 0 775.372846884554,521.5240161250861"/><line x1="878.0724841690935" y1="634.97719728793" x2="775.372846884554" y2="521.5240161250861"/><path class="line" d=" M 653.7932086640328,408.26815693847743 A 32,32 0 0 0 664.0144329270947,403.2381300886645"/><line x1="740.4337927818309" y1="711.4306532729132" x2="653.7932086640328" y2="408.26815693847743"/><text x="834.65" y="377.5" text-anchor="start" style="font-color:black;font-weight:normal" transform="rotate(423.7974683544304,645,377.5)">6%&#160;&#160;&#160;ECM</text><path class="line" d=" M 645,409.5 A 32,32 0 0 0 653.7932086640328,408.26815693847743"/><line x1="644.9999999999998" y1="724.8" x2="645" y2="409.5"/><text x="645" y="520.1371684925634" text-anchor="middle" style="font-color:black;font-weight:normal" transform="rotate(352.02531645569627,645,377.5)">Organelle Cytoplasm</text><path class="line" d=" M 652.7234125969699,571.6142584238452 A 194.26784712242628,194.26784712242628 0 0 0 698.3824286393724,564.2894877613425"/><line x1="658.8074376931621" y1="724.525423657042" x2="652.7234125969699" y2="571.6142584238452"/><text x="915.7839235612132" y="377.5" text-anchor="start" style="font-color:black;font-weight:normal" transform="rotate(440.8860759493672,645,377.5)">4%&#160;&#160;&#160;Nucleus</text><path class="line" d=" M 648.8624697937771,571.7294461524167 A 194.26784712242628,194.26784712242628 0 0 0 652.7234125969699,571.6142584238452"/><line x1="651.9050837760786" y1="724.7313491291438" x2="648.8624697937771" y2="571.7294461524167"/><text x="915.7839235612132" y="377.5" text-anchor="start" style="font-color:black;font-weight:normal" transform="rotate(448.29113924050637,645,377.5)">0.3%&#160;&#160;&#160;Mitochondria</text><path class="line" d=" M 644.9999999999999,571.7678471224262 A 194.26784712242628,194.26784712242628 0 0 0 648.8624697937771,571.7294461524167"/><text x="915.7839235612132" y="377.5" text-anchor="start" style="font-color:black;font-weight:normal" transform="rotate(449.4303797468355,645,377.5)">0.3%&#160;&#160;&#160;ER</text><path class="line" d=" M 641.1375302062228,571.7294461524167 A 194.26784712242628,194.26784712242628 0 0 0 644.9999999999999,571.7678471224262"/><line x1="638.0949162239212" y1="724.7313491291438" x2="641.1375302062228" y2="571.7294461524167"/><text x="915.7839235612132" y="377.5" text-anchor="start" style="font-color:black;font-weight:normal" transform="rotate(450.56962025316454,645,377.5)">0.3%&#160;&#160;&#160;Endosome</text><path class="line" d=" M 641.1375302062228,571.7294461524167 A 194.26784712242628,194.26784712242628 0 0 0 641.1375302062228,571.7294461524167"/><linearGradient id="gradient" x1="0%" y1="100%" x2="0%" y2="0%"><stop offset="0%" style="stop-color:rgb(216,140,140)"/><stop offset="17%" style="stop-color:rgb(216,216,140)"/><stop offset="33%" style="stop-color:rgb(140,216,140)"/><stop offset="50%" style="stop-color:rgb(140,216,216)"/><stop offset="67%" style="stop-color:rgb(140,140,216)"/><stop offset="83%" style="stop-color:rgb(216,140,216)"/><stop offset="100%" style="stop-color:rgb(216,140,140)"/><stop offset="100%" style="stop-color:rgb(216,140,140)"/></linearGradient><rect style="fill:url(#gradient)" x="14.4" y="627.75" width="20.0075" height="113.25"/><text x="14.4" y="749" style="font-color:black;font-weight:normal" text-anchor="start">Col</text><text x="36.4075" y="741" style="font-color:black;font-weight:normal" text-anchor="start">0</text><text x="36.4075" y="722.125" style="font-color:black;font-weight:normal" text-anchor="start">60</text><text x="36.4075" y="703.25" style="font-color:black;font-weight:normal" text-anchor="start">120</text><text x="36.4075" y="684.375" style="font-color:black;font-weight:normal" text-anchor="start">180</text><text x="36.4075" y="665.5" style="font-color:black;font-weight:normal" text-anchor="start">240</text><text x="36.4075" y="646.625" style="font-color:black;font-weight:normal" text-anchor="start">300</text><text x="36.4075" y="627.75" style="font-color:black;font-weight:normal" text-anchor="start">360</text></svg>