<?xml version="1.0" standalone="no"?><!DOCTYPE svg PUBLIC "-//W3C//DTD SVG 1.1//EN" 	"http://www.w3.org/Graphics/SVG/1.1/DTD/svg11.dtd"><svg width="1440" height="755" version="1.1"	xmlns="http://www.w3.org/2000/svg"><title>Krona (snapshot) - Non-Exosome</title><defs>	<style type="text/css">	text {font-size: 6px; font-family: sans-serif; dominant-baseline:central}	path {stroke-width:0.15;}	path.wedge {stroke:none}	path.line {fill:none;stroke:black;}	line {stroke:black;stroke-width:0.15;}	line.tick {stroke-width:0.3;}	line.pattern {stroke-width:0.09999999999999999;}	circle {fill:none;stroke:black;stroke-width:0.15;}	rect {stroke:black;stroke-width:0.15;}	.highlight {stroke:black;stroke-width:0.75;}	.searchHighlight {fill:rgb(255, 255, 100);stroke:none;}	</style><pattern id="hiddenPattern" patternUnits="userSpaceOnUse" x="0" y="0" width="3.5999999999999996" height="3.5999999999999996"><line class="pattern" x1="0" y1="0" x2="1.7999999999999998" y2="1.7999999999999998"/><line class="pattern" x1="1.7999999999999998" y1="3.5999999999999996" x2="3.5999999999999996" y2="1.7999999999999998"/></pattern></defs><path class="wedge" fill="rgb(216,140,140)" d=" M 645,425.5 L 645,724.8 A 347.3,347.3 0 0,1 301.37631615012964,427.8989473842891 L 597.5081001301647,384.4655901942006 A 48,48 0 0 0 645,425.5 Z "/><path class="wedge" fill="rgb(216,140,140)" d=" M 451.30732870258703,407.3600798469243 L 301.75482705053986,430.4154159663815 A 347.3,347.3 0 0,1 301.37631615012964,427.8989473842891 L 451.0937356408532,405.9400408767819 A 195.98080335275787,195.98080335275787 0 0 0 451.30732870258703,407.3600798469243 Z "/><path class="wedge" fill="rgb(216,165,140)" d=" M 645,573.4808033527579 L 645,724.8 A 347.3,347.3 0 0,1 362.7253696622795,579.8322096644606 L 485.7129029090434,491.6757241410297 A 195.98080335275787,195.98080335275787 0 0 0 645,573.4808033527579 Z "/><path class="wedge" fill="rgb(216,165,140)" d=" M 485.7129029090434,491.6757241410297 L 362.7253696622795,579.8322096644606 A 347.3,347.3 0 0,1 309.96308550013106,468.97434570636455 L 455.9392350805829,429.11881876677575 A 195.98080335275787,195.98080335275787 0 0 0 485.7129029090434,491.6757241410297 Z "/><path class="wedge" fill="rgb(216,165,140)" d=" M 455.9392350805829,429.11881876677575 L 309.96308550013106,468.97434570636455 A 347.3,347.3 0 0,1 301.75482705053986,430.4154159663815 L 451.30732870258703,407.3600798469243 A 195.98080335275787,195.98080335275787 0 0 0 455.9392350805829,429.11881876677575 Z "/><path class="wedge" fill="rgb(216,140,140)" d=" M 451.30732870258703,407.3600798469243 L 301.75482705053986,430.4154159663815 A 347.3,347.3 0 0,1 301.75482705053986,430.4154159663815 L 451.30732870258703,407.3600798469243 A 195.98080335275787,195.98080335275787 0 0 0 451.30732870258703,407.3600798469243 Z "/><path class="wedge" fill="url(#hiddenPattern)" d=" M 451.30732870258703,407.3600798469243 L 301.75482705053986,430.4154159663815 A 347.3,347.3 0 0,1 301.75482705053986,430.4154159663815 L 451.30732870258703,407.3600798469243 A 195.98080335275787,195.98080335275787 0 0 0 451.30732870258703,407.3600798469243 Z "/><path class="wedge" fill="rgb(140,216,216)" d=" M 597.5081001301647,384.4655901942006 L 301.37631615012964,427.8989473842891 A 347.3,347.3 0 0,1 535.5629158803963,47.89293906319483 L 629.8748055348661,331.94532414348794 A 48,48 0 0 0 597.5081001301647,384.4655901942006 Z "/><path class="wedge" fill="rgb(216,216,140)" d=" M 629.8748055348661,331.94532414348794 L 535.5629158803963,47.89293906319483 A 347.3,347.3 0 0,1 932.7269576839922,182.99938863357227 L 684.7664669416401,350.6182569951381 A 48,48 0 0 0 629.8748055348661,331.94532414348794 Z "/><path class="wedge" fill="rgb(140,140,216)" d=" M 684.7664669416401,350.6182569951381 L 932.7269576839922,182.99938863357227 A 347.3,347.3 0 0,1 947.139555783067,548.757054836322 L 686.7584183057506,401.16927334334423 A 48,48 0 0 0 684.7664669416401,350.6182569951381 Z "/><path class="wedge" fill="rgb(140,216,140)" d=" M 686.7584183057506,401.16927334334423 L 947.139555783067,548.757054836322 A 347.3,347.3 0 0,1 676.7653136694023,723.3442638637866 L 649.3902535448641,425.29880410441046 A 48,48 0 0 0 686.7584183057506,401.16927334334423 Z "/><path class="wedge" fill="rgb(140,216,140)" d=" M 672.1962516084027,571.5846186106586 L 693.1948130735906,721.4397476198435 A 347.3,347.3 0 0,1 676.7653136694023,723.3442638637866 L 662.925112846766,572.6593339100722 A 195.98080335275787,195.98080335275787 0 0 0 672.1962516084027,571.5846186106586 Z "/><path class="wedge" fill="rgb(140,216,165)" d=" M 815.4968409646152,474.1400667625963 L 947.139555783067,548.757054836322 A 347.3,347.3 0 0,1 829.6400502901586,671.6519026435963 L 749.1920684910996,543.4894217904814 A 195.98080335275787,195.98080335275787 0 0 0 815.4968409646152,474.1400667625963 Z "/><path class="wedge" fill="rgb(140,216,165)" d=" M 749.1920684910996,543.4894217904814 L 829.6400502901586,671.6519026435963 A 347.3,347.3 0 0,1 775.3302307946066,699.4181898262734 L 718.545129088043,559.1578907458068 A 195.98080335275787,195.98080335275787 0 0 0 749.1920684910996,543.4894217904814 Z "/><path class="wedge" fill="rgb(140,216,165)" d=" M 718.545129088043,559.1578907458068 L 775.3302307946066,699.4181898262734 A 347.3,347.3 0 0,1 736.7811730405762,712.4529911424822 L 696.7919609131892,566.5134071106042 A 195.98080335275787,195.98080335275787 0 0 0 718.545129088043,559.1578907458068 Z "/><path class="wedge" fill="rgb(140,216,165)" d=" M 696.7919609131892,566.5134071106042 L 736.7811730405762,712.4529911424822 A 347.3,347.3 0 0,1 703.2533106550895,719.879674919119 L 677.8722448031737,570.7042722208611 A 195.98080335275787,195.98080335275787 0 0 0 696.7919609131892,566.5134071106042 Z "/><path class="wedge" fill="rgb(140,216,165)" d=" M 677.8722448031737,570.7042722208611 L 703.2533106550895,719.879674919119 A 347.3,347.3 0 0,1 693.1948130735906,721.4397476198435 L 672.1962516084027,571.5846186106586 A 195.98080335275787,195.98080335275787 0 0 0 677.8722448031737,570.7042722208611 Z "/><path class="wedge" fill="rgb(216,140,216)" d=" M 649.3902535448641,425.29880410441046 L 676.7653136694023,723.3442638637866 A 347.3,347.3 0 0,1 645.0000000000001,724.8 L 645,425.5 A 48,48 0 0 0 649.3902535448641,425.29880410441046 Z "/><circle cx="645" cy="377.5" r="48"/><circle cx="645" cy="377.5" r="347.3"/><text x="645" y="377.5" text-anchor="middle" style="font-color:black;font-weight:bold" transform="rotate(360,645,377.5)">Non-Exosome</text><path class="line" d=" M 597.5081001301647,384.4655901942006 A 48,48 0 0 0 645,425.5"/><line x1="301.37631615012964" y1="427.8989473842891" x2="597.5081001301647" y2="384.4655901942006"/><text x="645" y="499.49040167637895" text-anchor="middle" style="font-color:black;font-weight:normal" transform="rotate(40.82798833819241,645,377.5)">Organelle Cytoplasm</text><path class="line" d=" M 485.7129029090434,491.6757241410297 A 195.98080335275787,195.98080335275787 0 0 0 645,573.4808033527579"/><line x1="362.7253696622795" y1="579.8322096644606" x2="485.7129029090434" y2="491.6757241410297"/><text x="373.35959832362107" y="377.5" text-anchor="end" style="font-color:black;font-weight:normal" transform="rotate(-62.81632653061224,645,377.5)">Nucleus&#160;&#160;&#160;15%</text><path class="line" d=" M 455.9392350805829,429.11881876677575 A 195.98080335275787,195.98080335275787 0 0 0 485.7129029090434,491.6757241410297"/><line x1="309.96308550013106" y1="468.97434570636455" x2="455.9392350805829" y2="429.11881876677575"/><text x="373.35959832362107" y="377.5" text-anchor="end" style="font-color:black;font-weight:normal" transform="rotate(-25.451895043731792,645,377.5)">Mitochondria&#160;&#160;&#160;6%</text><path class="line" d=" M 451.30732870258703,407.3600798469243 A 195.98080335275787,195.98080335275787 0 0 0 455.9392350805829,429.11881876677575"/><line x1="301.75482705053986" y1="430.4154159663815" x2="451.30732870258703" y2="407.3600798469243"/><text x="373.35959832362107" y="377.5" text-anchor="end" style="font-color:black;font-weight:normal" transform="rotate(-12.01749271137026,645,377.5)">ER&#160;&#160;&#160;2%</text><path class="line" d=" M 451.30732870258703,407.3600798469243 A 195.98080335275787,195.98080335275787 0 0 0 451.30732870258703,407.3600798469243"/><line x1="301.75482705053986" y1="430.4154159663815" x2="451.30732870258703" y2="407.3600798469243"/><path class="line" d=" M 629.8748055348661,331.94532414348794 A 48,48 0 0 0 597.5081001301647,384.4655901942006"/><line x1="535.5629158803963" y1="47.89293906319483" x2="629.8748055348661" y2="331.94532414348794"/><text x="447.35" y="377.5" text-anchor="end" style="font-color:black;font-weight:normal" transform="rotate(31.644314868804646,645,377.5)">Other&#160;&#160;&#160;22%</text><path class="line" d=" M 684.7664669416401,350.6182569951381 A 48,48 0 0 0 629.8748055348661,331.94532414348794"/><line x1="932.7269576839922" y1="182.99938863357227" x2="684.7664669416401" y2="350.6182569951381"/><text x="842.65" y="377.5" text-anchor="start" style="font-color:black;font-weight:normal" transform="rotate(288.7871720116618,645,377.5)">21%&#160;&#160;&#160;Cytosol</text><path class="line" d=" M 686.7584183057506,401.16927334334423 A 48,48 0 0 0 684.7664669416401,350.6182569951381"/><line x1="947.139555783067" y1="548.757054836322" x2="686.7584183057506" y2="401.16927334334423"/><text x="842.65" y="377.5" text-anchor="start" style="font-color:black;font-weight:normal" transform="rotate(357.74344023323613,645,377.5)">18%&#160;&#160;&#160;Plasma Membrane</text><path class="line" d=" M 649.3902535448641,425.29880410441046 A 48,48 0 0 0 686.7584183057506,401.16927334334423"/><line x1="676.7653136694023" y1="723.3442638637866" x2="649.3902535448641" y2="425.29880410441046"/><text x="645" y="526.3960022859712" text-anchor="middle" style="font-color:black;font-weight:normal" transform="rotate(327.14868804664724,645,377.5)">Organelle Membrane</text><path class="line" d=" M 749.1920684910996,543.4894217904814 A 195.98080335275787,195.98080335275787 0 0 0 815.4968409646152,474.1400667625963"/><line x1="829.6400502901586" y1="671.6519026435963" x2="749.1920684910996" y2="543.4894217904814"/><text x="916.6404016763789" y="377.5" text-anchor="start" style="font-color:black;font-weight:normal" transform="rotate(403.7142857142857,645,377.5)">8%&#160;&#160;&#160;Mitochondria</text><path class="line" d=" M 718.545129088043,559.1578907458068 A 195.98080335275787,195.98080335275787 0 0 0 749.1920684910996,543.4894217904814"/><line x1="775.3302307946066" y1="699.4181898262734" x2="718.545129088043" y2="559.1578907458068"/><text x="916.6404016763789" y="377.5" text-anchor="start" style="font-color:black;font-weight:normal" transform="rotate(422.92128279883383,645,377.5)">3%&#160;&#160;&#160;ER</text><path class="line" d=" M 696.7919609131892,566.5134071106042 A 195.98080335275787,195.98080335275787 0 0 0 718.545129088043,559.1578907458068"/><line x1="736.7811730405762" y1="712.4529911424822" x2="696.7919609131892" y2="566.5134071106042"/><text x="916.6404016763789" y="377.5" text-anchor="start" style="font-color:black;font-weight:normal" transform="rotate(431.3177842565598,645,377.5)">2%&#160;&#160;&#160;Golgi</text><path class="line" d=" M 677.8722448031737,570.7042722208611 A 195.98080335275787,195.98080335275787 0 0 0 696.7919609131892,566.5134071106042"/><line x1="703.2533106550895" y1="719.879674919119" x2="677.8722448031737" y2="570.7042722208611"/><text x="916.6404016763789" y="377.5" text-anchor="start" style="font-color:black;font-weight:normal" transform="rotate(437.51020408163265,645,377.5)">2%&#160;&#160;&#160;Nucleus</text><path class="line" d=" M 672.1962516084027,571.5846186106586 A 195.98080335275787,195.98080335275787 0 0 0 677.8722448031737,570.7042722208611"/><line x1="693.1948130735906" y1="721.4397476198435" x2="672.1962516084027" y2="571.5846186106586"/><text x="916.6404016763789" y="377.5" text-anchor="start" style="font-color:black;font-weight:normal" transform="rotate(441.18367346938777,645,377.5)">0.5%&#160;&#160;&#160;Endosome</text><path class="line" d=" M 645,425.5 A 48,48 0 0 0 649.3902535448641,425.29880410441046"/><line x1="645.0000000000001" y1="724.8" x2="645" y2="425.5"/><text x="842.65" y="377.5" text-anchor="start" style="font-color:black;font-weight:normal" transform="rotate(447.37609329446065,645,377.5)">1%&#160;&#160;&#160;ECM</text><linearGradient id="gradient" x1="0%" y1="100%" x2="0%" y2="0%"><stop offset="0%" style="stop-color:rgb(216,140,140)"/><stop offset="17%" style="stop-color:rgb(216,216,140)"/><stop offset="33%" style="stop-color:rgb(140,216,140)"/><stop offset="50%" style="stop-color:rgb(140,216,216)"/><stop offset="67%" style="stop-color:rgb(140,140,216)"/><stop offset="83%" style="stop-color:rgb(216,140,216)"/><stop offset="100%" style="stop-color:rgb(216,140,140)"/><stop offset="100%" style="stop-color:rgb(216,140,140)"/></linearGradient><rect style="fill:url(#gradient)" x="14.4" y="620.75" width="20.0075" height="113.25"/><text x="14.4" y="746" style="font-color:black;font-weight:normal" text-anchor="start">Col</text><text x="37.4075" y="734" style="font-color:black;font-weight:normal" text-anchor="start">0</text><text x="37.4075" y="715.125" style="font-color:black;font-weight:normal" text-anchor="start">60</text><text x="37.4075" y="696.25" style="font-color:black;font-weight:normal" text-anchor="start">120</text><text x="37.4075" y="677.375" style="font-color:black;font-weight:normal" text-anchor="start">180</text><text x="37.4075" y="658.5" style="font-color:black;font-weight:normal" text-anchor="start">240</text><text x="37.4075" y="639.625" style="font-color:black;font-weight:normal" text-anchor="start">300</text><text x="37.4075" y="620.75" style="font-color:black;font-weight:normal" text-anchor="start">360</text></svg>